# xmcd CD database file
#
# Track frame offsets:
#	150
#	18122
#	40065
#
# Disc length: 771 seconds
#
# Revision: 0
# Processed by: cddbd v1.5PL3 Copyright (c) Steve Scherf et al.
# Submitted via: CDex 1.51
#
DISCID=15030103
DTITLE=WAG - Free Magic
DYEAR=1999
DGENRE=JPop
TTITLE0=Free Magic
TTITLE1=Nil
TTITLE2=Free Magic (Instrumental)
EXTD=YEAR: 1999
EXTT0=
EXTT1=
EXTT2=
PLAYORDER=
